<svg viewBox="0 0 279 56" xmlns="http://www.w3.org/2000/svg"><path d="m277.12 34.27c-1.04 0-1.88-.83-1.88-1.87v-26.74c0-3.12-2.54-5.66-5.66-5.66h-5.66v6.6h1.88c1.04 0 1.88.83 1.88 1.87v6.8c-2.5-2.95-6.01-4.83-9.9-4.83-7.54 0-13.65 6.94-13.65 15.55s6.11 15.55 13.65 15.55c3.96 0 7.54-1.94 10.04-5 .59 2.46 2.85 4.31 5.52 4.31h5.66v-6.6h-1.88zm-17.43-.28c-4.41 0-7.99-3.58-7.99-7.99s3.58-7.99 7.99-7.99 7.99 3.58 7.99 7.99-3.58 7.99-7.99 7.99zm-155.33-22.85c-2.67 0-4.9 1.84-5.52 4.34-2.5-3.09-6.08-5-10.04-5-7.54 0-13.65 6.94-13.65 15.55s6.11 15.55 13.65 15.55c3.89 0 7.4-1.84 9.9-4.83v3.82c0 4.41-3.58 8.26-7.99 8.26h-1.81v7.15h1.77c2.92 0 5.7-.66 8.02-2.08 4.51-2.71 7.57-7.67 7.57-13.33v-20.93c0-1.04.83-1.87 1.88-1.87h1.88v-6.6zm-13.68 22.84c-4.41 0-7.99-3.58-7.99-7.99s3.58-7.99 7.99-7.99 7.99 3.58 7.99 7.99-3.58 7.99-7.99 7.99zm-69.46-23.53c-3.89 0-7.4 1.84-9.9 4.83v-9.62c0-3.12-2.54-5.66-5.66-5.66h-5.66v6.6h1.88c1.04 0 1.88.83 1.88 1.87v32.36h7.57v-4.13c2.5 2.95 6.01 4.83 9.9 4.83 7.54 0 13.65-6.94 13.65-15.55s-6.11-15.52-13.65-15.52zm-1.88 23.57c-4.41 0-7.99-3.58-7.99-7.99s3.58-7.99 7.99-7.99 7.99 3.58 7.99 7.99-3.58 7.99-7.99 7.99zm162.87-23.88c-8.58 0-15.56 6.94-15.56 15.55s6.95 15.55 15.56 15.55 15.56-6.94 15.56-15.55-6.98-15.55-15.56-15.55zm0 23.54c-4.41 0-7.99-3.58-7.99-7.99s3.58-7.99 7.99-7.99 7.99 3.58 7.99 7.99-3.58 7.99-7.99 7.99zm-55.18-15.9c2.95 0 5.56 1.6 6.91 3.99l6.56-3.78c-2.67-4.65-7.71-7.78-13.47-7.78-8.58 0-15.56 6.98-15.56 15.55s6.98 15.55 15.56 15.55c5.76 0 10.77-3.12 13.47-7.78l-6.56-3.78c-1.39 2.4-3.96 3.99-6.91 3.99-4.41 0-7.99-3.58-7.99-7.99s3.58-7.99 7.99-7.99zm27.82-2.3c-.59-2.5-2.85-4.34-5.49-4.34h-5.66v6.6h1.88c1.04 0 1.88.83 1.88 1.87v21.21h7.54v-15.03c0-4.41 3.58-7.99 7.99-7.99h1.88v-7.33c-3.92 0-7.5 1.91-10 5h-.02zm77.13-.45-3.65 13.57-4.69-17.36h-5.7l-4.69 17.39-3.65-13.57c-.76-2.26-2.88-3.89-5.38-3.89h-5.1v6.6h2.22c.83 0 1.56.56 1.81 1.32.03.07 5.83 21.8 5.83 21.8h7.61l4.2-15.62 4.2 15.62h7.61s5.83-21.73 5.83-21.8c.24-.76.97-1.32 1.81-1.32h2.22v-6.6h-5.1c-2.5-.03-4.62 1.6-5.38 3.85zm-158.95 19.24v6.6h-5.66c-2.67 0-4.9-1.84-5.49-4.31-2.33 2.88-5.59 4.76-9.24 5-.1 0-.21 0-.31.03h-1.01c-.1 0-.21 0-.31-.03-5.59-.42-10-5.1-10-10.8v-11.21c0-1.04-.83-1.87-1.88-1.87h-1.88v-6.6h5.66c3.13 0 5.66 2.53 5.66 5.66v10.73c0 3.61 2.95 6.56 6.56 6.56s6.56-2.95 6.56-6.56v-16.39h7.57v21.28c0 1.04.83 1.87 1.88 1.87l1.88.03h.01z" fill="#ff6900"/></svg>