<?xml version="1.0" encoding="UTF-8"?>
<!DOCTYPE svg PUBLIC "-//W3C//DTD SVG 1.0//EN" "http://www.w3.org/TR/2001/REC-SVG-20010904/DTD/svg10.dtd">
<!-- Creator: CorelDRAW -->
<svg xmlns="http://www.w3.org/2000/svg" xml:space="preserve" width="220px" height="77px" version="1.0" style="shape-rendering:geometricPrecision; text-rendering:geometricPrecision; image-rendering:optimizeQuality; fill-rule:evenodd; clip-rule:evenodd"
viewBox="0 0 22000000 7700000"
 xmlns:xlink="http://www.w3.org/1999/xlink"
 xmlns:xodm="http://www.corel.com/coreldraw/odm/2003">
 <defs>
  <style type="text/css">
   <![CDATA[
    .fil1 {fill:#003399}
    .fil0 {fill:red}
   ]]>
  </style>
 </defs>
 <g id="Capa_x0020_1">
  <metadata id="CorelCorpID_0Corel-Layer"/>
  <path class="fil0" d="M6732800 6019300c0,312800 -81900,572900 -245600,780100 -196400,249000 -488500,373300 -876200,373300l-454200 0c-102800,0 -196700,1900 -282000,5500 -85100,2500 -139200,3900 -162400,3900 -149000,0 -223500,-61300 -223500,-184100 0,-69400 30900,-115100 92800,-137300 62800,-22300 102600,-50600 119200,-84800 28600,-55400 65500,-226300 110700,-512700 45300,-287500 67800,-493100 67800,-616900 0,-69500 -17000,-117100 -51400,-142900 -29500,-14900 -60100,-30200 -91500,-45900 -31500,-15700 -47200,-49000 -47200,-99900 0,-63200 20300,-109700 61100,-139500 41700,-29700 130600,-44600 266700,-44600l265400 0c99100,0 216800,-1300 352900,-4000 136100,-3500 218000,-5300 245900,-5300 567600,0 851500,285000 851500,855100zm10722700 707600c0,145400 -65800,262300 -197500,351200 -131600,88000 -296700,132000 -494900,132000 -154900,0 -280600,-25000 -377000,-75000 -96500,-51000 -144700,-121000 -144700,-209900 0,-54800 14500,-102400 43400,-143300 28800,-40800 63100,-61300 103200,-61300 39000,0 76600,31700 113000,94600 36300,62800 79000,94300 128400,94300 39000,0 68900,-8300 89200,-25000 20700,-17500 30900,-41100 30900,-70800 0,-39800 -30900,-92500 -92300,-158200 -92100,-103600 -147000,-168300 -164600,-194300 -58700,-86100 -88100,-176400 -88100,-270600 0,-149100 68100,-269400 204300,-360900 135900,-92500 291500,-138900 466600,-138900 125800,0 230100,22000 312400,65400 82400,42600 123700,99600 123700,171000 0,53800 -14400,102100 -43100,144800 -28600,42600 -64300,63900 -106900,63900 -36200,0 -73100,-26900 -111100,-80900 -37800,-54900 -72600,-82200 -104100,-82200 -28600,-100 -51400,7800 -68000,23500 -15700,14900 -23600,33500 -23600,55700 0,52700 34400,114300 103000,184600 117900,121400 182300,189700 193300,205500 69700,90000 104500,184700 104500,284800zm-1260500 -697600c0,159000 -74100,301500 -222300,427200 -147300,125000 -315300,187400 -504500,187400 -63900,0 -95600,21500 -95600,64700 0,38300 18000,70200 54200,95400 36800,25400 79000,37900 126100,37900 78600,0 169300,-27500 272000,-82700 102700,-55100 163800,-82700 183100,-82700 32500,0 60100,12600 83300,37600 24100,25000 36200,53700 36200,86000 0,101100 -93100,194600 -279000,280800 -186000,85900 -363100,129200 -531600,129200 -188600,0 -342700,-42100 -462200,-126300 -119200,-85200 -179000,-217200 -179000,-395800 100,-269500 110700,-502800 331900,-699900 221200,-198300 478700,-297300 772200,-297300 133200,0 235600,29200 306900,87400 72200,57400 108300,141100 108300,251100zm-563900 48600c0,-69900 -22700,-105100 -68100,-105100 -48900,-100 -94800,43400 -137400,130300 -41800,86700 -62600,162500 -62600,227000 100,55500 17100,83000 51500,83000 40700,0 87000,-38300 138800,-114800 52000,-77600 77800,-151100 77800,-220400zm-1068800 727300c0,95300 -88900,186800 -266700,274700 -177000,86800 -327700,130200 -452900,130200 -185100,0 -277700,-89300 -277700,-268100l200 0c11600,-82300 37900,-239700 78700,-472100 40600,-233500 60900,-361600 60900,-384700 0,-23100 -6800,-38900 -20700,-47300 -13900,-9300 -44400,-13800 -91600,-13800 -88100,0 -132300,-31200 -132300,-93100 0,-121400 54200,-188900 162900,-202900 35300,-3700 62100,-8800 80800,-15300 18500,-6300 32900,-22300 43300,-47300l51300 -148700c34200,-97400 84700,-160600 151400,-189200 66500,-29700 165500,-44600 297200,-44600l29200 0c73900,0 111100,35300 111100,105700 0,18600 -5200,62200 -15400,130800 -9300,67800 -14100,115400 -14100,143200 0,43800 23000,65400 69300,65400l51100 0 77600 0c41400,0 62300,17200 62300,51300 100,89100 -8700,151900 -26400,189100 -16600,37000 -51600,55600 -105100,55600l-11200 0c-69200,0 -115900,7400 -139900,22200 -23900,13900 -39700,49500 -47100,107000l-64600 454500c-2000,9400 -2800,16900 -2800,22500 0,85000 28700,127900 86000,127900 25800,0 58200,-9900 97000,-29300 39800,-19500 65700,-29100 77600,-29100 53700,0 80600,35000 80600,105400zm-1790800 -841800c23200,0 44900,-23600 65300,-70900 29600,-65800 66300,-116000 109700,-150300 43500,-34200 98900,-51400 166400,-51400 86300,0 158400,33800 216700,101200 59200,66500 88800,145500 88800,237000 0,108100 -24900,193600 -74900,256400 -49100,61900 -114500,92800 -195900,92800 -52800,0 -94700,-12300 -125200,-37400 -30500,-25700 -56900,-62300 -79300,-109400 -16500,-34100 -31300,-51200 -44400,-51200 -30500,0 -50400,53700 -59700,161100 -2600,35400 -11700,123800 -26300,265600 -13900,141700 -20900,225200 -20900,250200 0,109300 -33700,195400 -101300,258500 -67500,63000 -202100,94500 -403800,94500 -134100,0 -201100,-50900 -201100,-152800 0,-56400 20400,-183700 60900,-381900 41700,-199100 62300,-342100 62300,-429100 0,-42700 -5100,-70000 -15200,-81900 -9300,-12000 -32000,-18100 -67800,-18100 -90500,0 -135800,-40800 -135800,-122200 0,-49200 18500,-89100 55500,-119400 37100,-30700 108800,-68100 215400,-112600 56100,-25900 112300,-49000 167700,-69400 55500,-21300 106900,-31900 154200,-31900 36900,0 65200,11100 84600,33400 20400,22200 35200,65800 44400,130800 11200,72200 31000,108400 59700,108400zm-2526600 677300c0,-263900 91600,-487900 274800,-672100 183200,-185100 415300,-277800 696700,-277800 198900,0 357400,51800 475900,155500 119400,103700 179000,244000 179000,420800 0,268600 -93900,493100 -281700,673500 -186900,179700 -419100,269500 -696600,269500 -187800,0 -342900,-50000 -464900,-150000 -122300,-100900 -183200,-240700 -183200,-419400zm650000 128700c0,93500 31900,140100 95400,140100 85700,0 145600,-108700 179700,-325900 34200,-217300 51200,-364200 51200,-441100 0,-100700 -31900,-151000 -95400,-151000 -82100,0 -141000,99800 -176900,299500 -36000,199600 -54000,359100 -54000,478400zm-779200 -527200c0,235200 -69500,455600 -208300,660900 -138800,204700 -313800,307000 -524900,307000 -26900,0 -59700,-6000 -98600,-17800 -39000,-13000 -63900,-19600 -75000,-19600 -33400,0 -50000,32600 -50000,97800 0,50200 7000,90200 20700,119900 14800,28800 41100,51500 78900,68400 48100,22300 71900,49600 71900,82200 0,110300 -99700,165400 -299500,165400 -183100,0 -333300,-20400 -450700,-60900 -116600,-40800 -174900,-100400 -174900,-179200 0,-47300 23600,-88400 70800,-123500 47200,-36200 73600,-82600 79100,-139000l73500 -790700c3700,-38800 5500,-69000 5500,-90100 0,-82500 -8900,-133100 -26400,-151600 -17700,-18500 -43500,-27800 -77800,-27800 -76900,0 -115300,-35200 -115300,-105600 0,-51000 28700,-94900 86000,-131800 26100,-14800 115400,-54300 268100,-118300 152800,-64700 253300,-97100 301200,-97100 78600,0 118100,41600 118100,124700 0,48800 18100,73300 54100,73300 22100,0 54100,-16500 95800,-49800 48300,-39700 104700,-74400 169500,-103900 65600,-29500 141200,-44300 226400,-44300 119400,0 212700,51000 280500,152800 67600,100900 101300,233700 101300,398600zm-629100 24200c0,-91500 -29400,-137500 -87900,-137500 -65200,0 -118100,81600 -158900,244300 -40900,162100 -61500,311400 -61500,447400 0,59400 20900,88900 62900,88900 71400,0 130000,-78600 175600,-236000 46600,-158500 69700,-294100 69800,-407100zm-1167300 -237100c0,159000 -74100,301500 -222300,427200 -147300,125000 -315400,187400 -504400,187400 -63800,0 -95900,21500 -95900,64700 0,38300 18000,70200 54100,95400 37100,25400 79200,37900 126300,37900 78800,0 169400,-27500 272100,-82700 102700,-55100 163700,-82700 183100,-82700 32300,0 60300,12600 83400,37600 23900,25000 36000,53700 36000,86000 0,101100 -93000,194600 -278800,280800 -186100,85900 -363400,129200 -531700,129200 -188900,0 -342900,-42100 -462100,-126300 -119400,-85200 -179100,-217200 -179100,-395800 0,-269500 110600,-502800 331800,-699900 221400,-198300 478800,-297300 772200,-297300 133500,0 235700,29200 307000,87400 72200,57400 108300,141100 108300,251100zm-563800 48600c0,-69900 -22800,-105100 -68200,-105100 -49100,-100 -94900,43400 -137400,130300 -41600,86700 -62700,162500 -62700,227000 100,55500 17200,83000 51300,83000 40900,0 87200,-38300 139100,-114800 51800,-77600 77900,-151100 77900,-220400zm-1759000 -126400c0,-305800 -95200,-458900 -285100,-458900 -94700,0 -145800,44600 -153200,133500l-88800 1062800c0,68300 8800,111300 26400,128900 17700,17600 44000,26400 79400,26400 135200,0 239200,-75200 311500,-225900 73200,-151500 109800,-373800 109800,-666800z"/>
  <path class="fil1" d="M18704700 93500c371300,0 673400,296500 682300,665700l-1364700 0c8900,-369200 311000,-665700 682400,-665700zm682500 856000l0 570400 671800 -570400 1918900 0c-34200,130800 -107500,252700 -218400,346900l-263300 223700 -3474100 0 0 -570600 1365100 0zm895900 -190300l592800 -503400 0 0c287300,-244000 718100,-208800 962100,78500 105100,123900 158400,274300 162000,424900l-1716900 0zm989000 951100l-672000 570700 -2578000 0 0 -570700 3250000 0zm-672200 760800l672100 570700 -3249900 0 0 -570700 2577800 0zm896100 760900l263600 223800 -100 0c105000,89200 182600,209600 218500,346800l-1919100 0 -671700 -570300 0 570300 -1365100 0 0 -570600 3473900 0zm504000 760800c-8700,369300 -310900,665800 -682200,665900 -168500,0 -322800,-61100 -441800,-162300l-4900 -4200 -588200 -499400 1717100 0zm-2613000 0c-8800,369300 -311000,665900 -682300,665900 -371400,0 -673600,-296600 -682400,-665900l1364700 0zm-9435200 -3518800c-112400,-222800 -343200,-375500 -609800,-375500 -369600,0 -670600,293800 -682100,660700l1440000 0 -148100 -285200zm-1271300 475500c14100,55800 35100,108800 62100,158200l214000 412400 1538200 0 -296200 -570600 -1518100 0zm374900 760800l296200 570700 1538100 0 -296200 -570700 -1538100 0zm394900 760800l296200 570700 2507300 0 296200 -570700c-1056200,0 -2043500,0 -3099700,0zm394900 760900l296200 570600 1717500 0 296200 -570600 -2309900 0zm394900 760800l143500 276500c109800,230200 344500,389200 616600,389200 271500,0 506100,-158600 616000,-388300l144000 -277400 -1520100 0zm2408600 -1711800l296200 -570700 -1538100 0 -296200 570700 1538100 0zm394900 -760900l214000 -412400c27000,-49400 48000,-102400 62200,-158200l-1518200 0 -296100 570600 1538100 0zm296800 -760900c-11500,-366900 -312500,-660700 -682200,-660700 -266500,0 -497300,152700 -609700,375500l-148100 285200 1440000 0zm782100 3518900c-112400,222800 -343200,375500 -609800,375500 -369600,0 -670700,-293900 -682100,-660800l4680500 0c-11500,366900 -312500,660800 -682200,660800 -266500,0 -497300,-152700 -609700,-375500l-49400 -95100 -1997900 0 -49400 95100zm-1271300 -475500c14100,-55600 35100,-108600 61900,-157800l214300 -412800 4086900 0 214000 412300c27000,49400 48000,102500 62200,158300l-4639300 0zm374900 -760800l296200 -570700 1538100 0 -197500 380500 615900 0 -197500 -380500 1538100 0 296200 570700 -3889500 0zm394900 -760800l296200 -570700 2507300 0 296200 570700c-1056200,0 -2043600,0 -3099700,0zm394900 -760900l296200 -570600 1717400 0 296200 570600 -2309800 0zm394900 -760900l143700 -276700 4600 -9400 1400 -2900c12100,-24000 25500,-47200 40200,-69500l1500 -2300c8500,-12700 17300,-25100 26600,-37200l800 -1000c9100,-11800 18600,-23300 28500,-34600l2900 -3400 6100 -6600 8000 -8700c5400,-5700 10800,-11200 16400,-16700l500 -500c5400,-5400 11000,-10600 16600,-15800l200 -200 8000 -7300 1300 -1100 8300 -7200 9000 -7700 1200 -1000 8000 -6400 800 -700c8900,-7000 18000,-14000 27200,-20600l300 -200 7400 -5200 4500 -3100 7200 -5000 300 -100 9900 -6500c10000,-6500 20100,-12600 30400,-18500l10400 -5800 7400 -4000 3100 -1600 6600 -3500 3900 -2000 10700 -5300 200 -100 10700 -5000 1700 -800 8000 -3600 1100 -400 8700 -3900 2300 -900 11100 -4500 2100 -800 9200 -3600 1900 -700 8400 -3100 900 -300 10900 -3800 500 -200 11500 -3700 4000 -1300 3200 -900 9400 -2900 3500 -1000 3100 -900 11700 -3100 1500 -400 10400 -2600 6000 -1400 5900 -1300 10700 -2300 1200 -300 15300 -2900 600 -100 13100 -2200 6600 -1000 800 -100 12200 -1700 800 -100 15700 -1800 3700 -400 15000 -1300 2100 -100 12500 -800 400 0 8800 -500 6100 -200 8200 -200 14400 -200 14500 200 8000 200 6600 200 8400 400c10000,600 19900,1300 29800,2300l2500 300 5700 600 11500 1300 900 100 12200 1700 3900 600 3900 600 10500 1800 2500 400 3600 600 12000 2300 1100 300 10900 2300 5700 1300 2500 600 11000 2700 2900 700 1700 400c9300,2400 18400,5100 27600,7900l3100 900 4300 1400 11500 3700 200 100 14500 5200 2300 800 14500 5500 2400 900 11100 4500 1900 800 3800 1700 9700 4200 2900 1400 13800 6400 600 300 14200 7100 7100 3700 7600 4000 2900 1600 10400 5800 1100 700 9200 5300 4900 3000 5200 3200 8800 5500 1200 800 10000 6600 2600 1700 7100 4900 2300 1700 7000 4900 400 300 9600 7000 300 200 9100 6900 3900 3100 5400 4300 7400 6000 1700 1400 9100 7600 1700 1600 7100 6300 5100 4500 3700 3400 8400 7800 300 300 8400 8200 3000 2900 5300 5500 6100 6300 2100 2200 8100 8600 1000 1100 9100 10300 1800 2000 3700 4400 6800 8100 800 1000 9000 11100 500 700 5200 6700 4800 6300 2300 3200 7000 9500 3500 5000 5500 8000 700 1100 3700 5500 5400 8200 1000 1700 6400 10100 4500 7600 2800 4700 4200 7300 1800 3200 7100 13000 4700 8900 800 1700 6300 12500 600 1300 1200 2600 143500 276400 -1520000 0zm-7889300 2092400l615900 0 -197500 -380500 1538100 0 296200 570700 -3889500 0 296200 -570700 1538100 0 -197500 380500zm-1241900 -570600l296200 -570700 2507300 0 296200 570700c-1056300,0 -2043400,0 -3099700,0zm1211600 -2097900c-10300,5900 -20400,12000 -30400,18500l-9900 6500 -300 100 -7300 5000 -4400 3100 -7400 5200 -300 200c-9200,6600 -18300,13600 -27200,20600l-800 700 -8000 6400 -1200 1000 -9000 7700 -8300 7200 -1300 1100 -8000 7300 -200 200c-5600,5200 -11200,10400 -16600,15800l-500 500c-5600,5500 -11000,11000 -16400,16700l-8000 8700 -6100 6600 -2900 3400c-9900,11300 -19400,22800 -28600,34600l-700 1000c-9300,12100 -18100,24500 -26600,37200l-1500 2300c-14700,22300 -28100,45500 -40200,69500l-1400 2900 -4600 9400 -143700 276700 1520000 0 -143400 -276400 -1300 -2600 -600 -1300 -6300 -12500 -800 -1700 -4700 -8900 -7100 -13000 -1800 -3200 -4200 -7300 -2800 -4700 -4600 -7600 -6300 -10100 -1000 -1700 -5400 -8200 -3700 -5500 -700 -1100 -5600 -8000 -3400 -5000 -6900 -9500 -2400 -3200 -4800 -6300 -5200 -6700 -500 -700 -9000 -11100 -800 -1000 -6800 -8100 -3700 -4400 -1800 -2000 -9200 -10300 -900 -1100 -8100 -8600 -2100 -2200 -6100 -6300 -5300 -5500 -3000 -2900 -8400 -8200 -400 -300 -8300 -7800 -3700 -3400 -5100 -4500 -7100 -6300 -1700 -1600 -9100 -7600 -1700 -1400 -7400 -6000 -5400 -4300 -3900 -3100 -9100 -6900 -300 -200 -9600 -7000 -400 -300 -7000 -4900 -2300 -1700 -7100 -4900 -2600 -1700 -10000 -6600 -1200 -800 -8800 -5500 -5200 -3200 -4900 -3000 -9200 -5300 -1100 -700 -10400 -5800 -3000 -1600 -7500 -4000 -7100 -3700 -14200 -7100 -600 -300 -13800 -6400 -2900 -1400 -9700 -4200 -3800 -1700 -1900 -800 -11100 -4500 -2400 -900 -14500 -5500 -2300 -800 -14600 -5200 -100 -100 -11500 -3700 -4300 -1400 -3100 -900c-9200,-2800 -18300,-5500 -27600,-7900l-1700 -400 -2900 -700 -11000 -2700 -2500 -600 -5700 -1300 -10900 -2300 -1100 -300 -12000 -2300 -3600 -600 -2500 -400 -10500 -1800 -3900 -600 -3900 -600 -12300 -1700 -800 -100 -11500 -1300 -5700 -600 -2500 -300c-9900,-1000 -19800,-1700 -29800,-2300l-8400 -400 -6600 -200 -8000 -200 -14500 -200 -14400 200 -8200 200 -6100 200 -8800 500 -400 0 -12500 800 -2100 100 -15000 1300 -3700 400 -15700 1800 -800 100 -12200 1700 -800 100 -6600 1000 -13100 2200 -600 100 -15300 2900 -1200 300 -10800 2300 -5800 1300 -6100 1400 -10300 2600 -1500 400 -11700 3100 -3200 900 -3400 1000 -9400 2900 -3200 900 -4000 1300 -11500 3700 -500 200 -10900 3800 -900 300 -8400 3100 -2000 700 -9100 3600 -2100 800 -11100 4500 -2300 900 -8700 3900 -1100 400 -8000 3600 -1700 800 -10700 5000 -200 100 -10700 5300 -3900 2000 -6600 3500 -3100 1600 -7400 4000 -10400 5800zm-520500 766400l-296200 570600 2309800 0 -296200 -570600 -1717400 0zm-1184700 2282500l-214300 412800c-26800,49200 -47800,102200 -62000,157800l4639400 0c-14100,-55800 -35200,-108900 -62200,-158300l-214000 -412300 -4086900 0zm-296800 760800c11400,366900 312500,660800 682200,660800 265800,0 496000,-151900 608700,-373600l50400 -97100 1997900 0 53300 102700c113700,218700 342300,368000 605800,368000 369700,0 670700,-293900 682200,-660800l-4680500 0zm-3806600 -3899300c371300,0 673400,296500 682300,665700l-1364700 0c8900,-369200 311000,-665700 682400,-665700zm682600 856000l0 570400 671700 -570400 1918900 0c-34200,130800 -107500,252700 -218400,346900l-263300 223700 -3474100 0 0 -570600 1365200 0zm895800 -190300l592800 -503400 0 0c287300,-244000 718100,-208800 962100,78500 105100,123900 158400,274300 162000,424900l-1716900 0zm989000 951100l-672000 570700 -2578000 0 0 -570700 3250000 0zm-672100 760800l672000 570700 -3249900 0 0 -570700 2577900 0zm896000 760900l263600 223800 0 0c104900,89200 182500,209600 218500,346800l-1919200 0 -671600 -570300 0 570300 -1365200 0 0 -570600 3473900 0zm504100 760800c-8800,369300 -310900,665800 -682300,665900 -168500,0 -322800,-61100 -441800,-162300l-4900 -4200 -588200 -499400 1717200 0zm-2613100 0c-8800,369300 -310900,665900 -682300,665900 -371400,0 -673600,-296600 -682400,-665900l1364700 0z"/>
 </g>
</svg>
